# This file uses centimeters as units for non-parametric coordinates.

v 0.607887 -0.370012 -1.052889
v -0.607886 -0.370012 -1.052889
v -1.215773 -0.370012 -0.000002
v -0.607887 -0.370012 1.052888
v 0.607886 -0.370012 1.052888
v 1.215773 -0.370012 -0.000002
v 1.215773 -0.370012 -2.105778
v -1.215773 -0.370012 -2.105779
v -2.431546 -0.370012 -0.000002
v -1.215773 -0.370012 2.105777
v 1.215773 -0.370012 2.105777
v 2.431546 -0.370012 -0.000002
v 0.869850 0.544459 -1.506623
v -0.869849 0.544459 -1.506623
v -1.739699 0.544459 -0.000000
v -0.869849 0.544459 1.506623
v 0.869849 0.544459 1.506623
v 1.739699 0.544459 0.000000
v -1.004999 0.544459 -1.740709
v 1.004999 0.544459 -1.740709
v 2.009998 0.544459 0.000000
v 1.004999 0.544459 1.740709
v -1.004999 0.544459 1.740709
v -2.009998 0.544459 -0.000000
v -0.957701 2.309854 -1.658787
v -1.004999 2.227933 -1.740709
v 1.004999 2.227933 -1.740709
v 0.957702 2.309854 -1.658787
v -0.869849 2.227933 -1.506623
v -0.917147 2.309854 -1.588545
v 0.917148 2.309854 -1.588545
v 0.869850 2.227933 -1.506623
v 2.009998 2.227933 0.000000
v 1.915402 2.309854 0.000000
v 1.834294 2.309854 0.000000
v 1.739699 2.227933 0.000000
v 1.004999 2.227933 1.740709
v 0.957701 2.309854 1.658787
v 0.917147 2.309854 1.588545
v 0.869849 2.227933 1.506623
v -1.004999 2.227933 1.740709
v -0.957701 2.309854 1.658787
v -0.917147 2.309854 1.588545
v -0.869849 2.227933 1.506623
v -2.009998 2.227933 -0.000000
v -1.915402 2.309854 -0.000000
v -1.834294 2.309854 -0.000000
v -1.739699 2.227933 -0.000000
v 1.634925 0.361583 -2.831771
v 1.590952 0.544459 -2.755610
v -1.634923 0.361583 -2.831771
v -1.590951 0.544459 -2.755610
v -3.269848 0.361583 -0.000001
v -3.181904 0.544459 -0.000001
v -1.634924 0.361583 2.831771
v -1.590952 0.544459 2.755609
v 1.634924 0.361583 2.831771
v 1.590952 0.544459 2.755609
v 3.269848 0.361583 -0.000000
v 3.181904 0.544459 0.000000
vt 0.191893 0.614871
vt 0.208338 0.619372
vt 0.188755 0.696810
vt 0.165843 0.691459
vt 0.225207 0.622758
vt 0.211758 0.701278
vt 0.162942 0.841738
vt 0.887974 0.256703
vt 0.186867 0.845926
vt 0.902688 0.223555
vt 0.780126 0.185538
vt 0.652903 0.154376
vt 0.242287 0.625054
vt 0.259395 0.626184
vt 0.258329 0.707576
vt 0.234926 0.704863
vt 0.276345 0.625959
vt 0.282036 0.709437
vt 0.234647 0.853612
vt 0.523829 0.185219
vt 0.258296 0.857288
vt 0.522292 0.148931
vt 0.392838 0.168835
vt 0.264792 0.196514
vt 0.263011 0.191758
vt 0.251234 0.157189
vt 0.310793 0.757090
vt 0.391987 0.164016
vt 0.284164 0.609122
vt 0.311775 0.609305
vt 0.338404 0.757274
vt 0.522208 0.143858
vt 0.339386 0.609489
vt 0.421237 0.757824
vt 0.907212 0.219940
vt 0.781478 0.180829
vt 0.393626 0.757641
vt 0.653383 0.149315
vt 0.657934 0.113075
vt 0.394608 0.609855
vt 0.422219 0.610039
vt 0.366997 0.609672
vt 0.333059 0.902099
vt 0.760494 0.353765
vt 0.628125 0.349227
vt 0.290896 0.917588
vt 0.495211 0.346934
vt 0.494218 0.297981
vt 0.273889 0.854595
vt 0.305243 0.843076
vt 0.240999 0.860421
vt 0.100665 0.399665
vt 0.088768 0.352169
vt 0.157541 0.917404
vt 0.230737 0.372224
vt 0.143401 0.842852
vt 0.174722 0.854457
vt 0.201748 0.925362
vt 0.362499 0.354614
vt 0.207596 0.860375
vt 0.285401 0.787587
vt 0.285401 0.804288
vt 0.270937 0.812639
vt 0.270937 0.779236
vt 0.299864 0.812639
vt 0.299864 0.829340
vt 0.299864 0.779236
vt 0.299864 0.762535
vt 0.314328 0.804288
vt 0.328792 0.812639
vt 0.314328 0.787587
vt 0.328792 0.779236
vt 0.142780 0.244118
vt 0.405423 0.779321
vt 0.405423 0.823032
vt 0.391481 0.814982
vt 0.391481 0.787371
vt 0.367569 0.844887
vt 0.367569 0.828788
vt 0.367569 0.757466
vt 0.367569 0.773565
vt 0.329715 0.823032
vt 0.343657 0.814982
vt 0.329715 0.779322
vt 0.343657 0.787371
vt 0.176147 0.609122
vt 0.142939 0.685245
vt 0.139107 0.837341
vt 0.276313 0.230834
vt 0.147241 0.247418
vt 0.210800 0.849869
vt 0.648246 0.190278
vt 0.448848 0.758008
vt 0.125327 0.212211
vt 0.449830 0.610222
vt 0.366015 0.757457
vt 0.520650 0.107283
vt 0.766833 0.305214
vt 0.371843 0.879439
vt 0.891570 0.375910
vt 0.334083 0.826226
vt 0.357838 0.305873
vt 0.246667 0.925424
vt 0.630806 0.300337
vt 0.222434 0.323970
vt 0.901532 0.327971
vt 0.115420 0.901798
vt 0.399549 0.204780
vt 0.385540 0.128627
vt 0.770394 0.220788
vt 0.791198 0.146196
vt 0.164685 0.279333
vt 0.115420 0.832849
vt 0.922030 0.186209
vt 0.283182 0.756907
vn 0.000000 -1.000000 0.000000
vn 0.000000 -1.000000 0.000000
vn 0.000000 -1.000000 0.000000
vn 0.000000 -1.000000 0.000000
vn 0.000000 -1.000000 0.000000
vn 0.000000 -1.000000 0.000000
vn 0.000000 -1.000000 -0.000000
vn 0.000000 -1.000000 -0.000000
vn 0.000000 -1.000000 -0.000000
vn 0.000000 -1.000000 -0.000000
vn 0.000000 -1.000000 -0.000000
vn 0.000000 -1.000000 -0.000000
vn 0.000000 0.444468 0.895795
vn 0.000000 0.444468 0.895795
vn -0.000000 0.151800 0.988411
vn -0.000000 0.151800 0.988411
vn -0.775781 0.444467 0.447898
vn -0.775782 0.444467 0.447898
vn -0.855989 0.151800 0.494206
vn -0.855989 0.151800 0.494206
vn -0.775781 0.444468 -0.447898
vn -0.775781 0.444468 -0.447898
vn -0.855989 0.151800 -0.494206
vn -0.855989 0.151800 -0.494206
vn 0.000000 0.444469 -0.895794
vn 0.000000 0.444469 -0.895794
vn 0.000000 0.151801 -0.988411
vn 0.000000 0.151801 -0.988411
vn 0.775781 0.444467 -0.447897
vn 0.775781 0.444467 -0.447897
vn 0.855989 0.151800 -0.494205
vn 0.855989 0.151800 -0.494205
vn 0.775781 0.444467 0.447898
vn 0.775781 0.444467 0.447898
vn 0.855989 0.151800 0.494206
vn 0.855989 0.151800 0.494206
vn -0.612372 0.707107 -0.353554
vn -0.612372 0.707107 -0.353554
vn -0.612372 0.707107 -0.353554
vn -0.612372 0.707107 -0.353554
vn 0.000000 0.707107 -0.707107
vn 0.000000 0.707107 -0.707107
vn 0.000000 0.707107 -0.707107
vn 0.000000 0.707107 -0.707107
vn 0.612372 0.707107 -0.353554
vn 0.612372 0.707107 -0.353554
vn 0.612372 0.707107 -0.353554
vn 0.612372 0.707107 -0.353554
vn 0.612372 0.707107 0.353553
vn 0.612372 0.707107 0.353553
vn 0.612372 0.707107 0.353553
vn 0.612372 0.707107 0.353553
vn -0.000000 0.707107 0.707106
vn -0.000000 0.707107 0.707106
vn -0.000000 0.707108 0.707106
vn -0.000000 0.707108 0.707106
vn -0.612372 0.707107 0.353553
vn -0.612372 0.707107 0.353553
vn -0.612372 0.707107 0.353553
vn -0.612372 0.707107 0.353553
vn 0.612372 0.707107 0.353554
vn 0.612372 0.707107 0.353554
vn 0.612372 0.707107 0.353554
vn 0.612372 0.707107 0.353554
vn -0.612373 0.707107 -0.353552
vn -0.612373 0.707107 -0.353552
vn -0.612373 0.707107 -0.353552
vn -0.612372 0.707107 -0.353552
vn 0.000000 0.707107 0.707107
vn 0.000000 0.707107 0.707107
vn 0.000000 0.707107 0.707107
vn 0.000000 0.707107 0.707107
vn 0.000000 0.707109 -0.707105
vn 0.000000 0.707109 -0.707105
vn 0.000000 0.707109 -0.707105
vn 0.000000 0.707109 -0.707105
vn -0.612372 0.707107 0.353554
vn -0.612372 0.707107 0.353554
vn -0.612372 0.707107 0.353554
vn -0.612372 0.707107 0.353554
vn 0.612372 0.707107 -0.353553
vn 0.612372 0.707107 -0.353553
vn 0.612372 0.707107 -0.353553
vn 0.612372 0.707107 -0.353553
vn 0.000000 1.000000 -0.000001
vn 0.000000 1.000000 -0.000001
vn 0.000000 1.000000 -0.000001
vn 0.000000 1.000000 -0.000001
vn 0.000000 1.000000 -0.000000
vn 0.000000 1.000000 -0.000000
vn 0.000000 1.000000 -0.000001
vn 0.000000 1.000000 -0.000001
vn 0.000000 1.000000 -0.000001
vn 0.000000 1.000000 -0.000001
vn 0.000000 1.000000 0.000000
vn 0.000000 1.000000 0.000000
vn 0.000000 0.000000 -1.000000
vn 0.000000 0.000000 -1.000000
vn 0.000000 0.000000 -1.000000
vn 0.000000 0.000000 -1.000000
vn -0.000000 0.000000 1.000000
vn -0.000000 0.000000 1.000000
vn 0.866025 0.000000 -0.500000
vn 0.866025 0.000000 -0.500000
vn 0.866025 0.000000 -0.500000
vn 0.866025 0.000000 -0.500000
vn -0.866026 0.000000 0.500000
vn -0.866026 0.000000 0.500000
vn 0.866025 0.000000 0.500000
vn 0.866025 0.000000 0.500000
vn 0.866025 0.000000 0.500000
vn 0.866025 0.000000 0.500000
vn -0.866025 0.000000 -0.500000
vn -0.866025 0.000000 -0.500000
vn 0.000000 0.000000 1.000000
vn 0.000000 0.000000 1.000000
vn 0.000000 0.000000 1.000000
vn 0.000000 0.000000 1.000000
vn 0.000000 0.000000 -1.000000
vn 0.000000 0.000000 -1.000000
vn -0.866025 0.000000 0.500000
vn -0.866025 0.000000 0.500000
vn -0.866025 0.000000 0.500000
vn -0.866025 0.000000 0.500000
vn 0.866026 0.000000 -0.500000
vn 0.866026 0.000000 -0.500000
vn -0.866025 0.000000 -0.500000
vn -0.866025 0.000000 -0.500000
vn -0.866025 0.000000 -0.500000
vn -0.866025 0.000000 -0.500000
vn 0.866025 0.000000 0.500000
vn 0.866025 0.000000 0.500000
vn 0.799464 0.384460 -0.461571
vn 0.799464 0.384460 -0.461571
vn 0.799464 0.384460 -0.461571
vn 0.799464 0.384460 -0.461571
vn 0.000000 0.384458 -0.923142
vn 0.000000 0.384458 -0.923142
vn 0.000000 0.384458 -0.923142
vn 0.000000 0.384458 -0.923142
vn -0.799465 0.384459 -0.461571
vn -0.799464 0.384459 -0.461571
vn -0.799464 0.384459 -0.461571
vn -0.799464 0.384459 -0.461571
vn -0.799464 0.384461 0.461571
vn -0.799464 0.384461 0.461571
vn -0.799464 0.384461 0.461571
vn -0.799464 0.384461 0.461571
vn 0.000000 0.384459 0.923142
vn 0.000000 0.384459 0.923142
vn 0.000000 0.384459 0.923142
vn 0.000000 0.384459 0.923142
vn 0.799464 0.384460 0.461571
vn 0.799464 0.384461 0.461571
vn 0.799464 0.384460 0.461571
vn 0.799464 0.384460 0.461571
vn 0.000000 -0.704384 -0.709819
vn 0.000000 -0.704384 -0.709819
vn 0.000000 -0.704384 -0.709819
vn 0.000000 -0.704384 -0.709819
vn -0.614722 -0.704383 -0.354910
vn -0.614722 -0.704383 -0.354910
vn -0.614722 -0.704383 -0.354910
vn -0.614722 -0.704383 -0.354910
vn -0.614722 -0.704383 0.354910
vn -0.614722 -0.704383 0.354910
vn -0.614722 -0.704383 0.354910
vn -0.614722 -0.704383 0.354910
vn 0.000000 -0.704384 0.709819
vn 0.000000 -0.704384 0.709819
vn 0.000000 -0.704384 0.709819
vn 0.000000 -0.704384 0.709819
vn 0.614722 -0.704384 0.354910
vn 0.614722 -0.704384 0.354910
vn 0.614722 -0.704384 0.354910
vn 0.614722 -0.704384 0.354910
vn 0.614722 -0.704383 -0.354910
vn 0.614722 -0.704383 -0.354910
vn 0.614722 -0.704383 -0.354910
vn 0.614722 -0.704383 -0.354910
vn 0.000000 1.000000 -0.000000
vn 0.000000 1.000000 -0.000000
vn 0.000000 1.000000 -0.000000
vn 0.000000 1.000000 -0.000000
vn 0.000000 1.000000 -0.000000
vn 0.000000 1.000000 -0.000000
vn 0.000000 1.000000 -0.000000
vn 0.000000 1.000000 -0.000000
vn 0.000000 1.000000 0.000000
vn 0.000000 1.000000 -0.000000
vn 0.000000 1.000000 -0.000000
vn 0.000000 1.000000 -0.000000
f 1/61/1 2/62/2 8/63/3 7/64/4
f 2/62/2 3/65/5 9/66/6 8/63/3
f 3/65/5 4/69/7 10/70/8 9/66/6
f 4/69/7 5/71/9 11/72/10 10/70/8
f 5/71/9 6/67/11 12/68/12 11/72/10
f 6/67/11 1/61/1 7/64/4 12/68/12
f 2/86/13 1/1/14 13/4/15 14/87/16
f 1/1/17 6/2/18 18/3/19 13/4/20
f 6/2/21 5/5/22 17/6/23 18/3/24
f 5/5/25 4/13/26 16/16/27 17/6/28
f 4/13/29 3/14/30 15/15/31 16/16/32
f 3/14/33 2/17/34 14/18/35 15/15/36
f 25/25/37 26/26/38 45/109/39 46/28/40
f 26/26/41 25/25/42 28/73/43 27/94/44
f 27/114/45 28/35/46 34/36/47 33/111/48
f 29/89/49 30/24/50 47/23/51 48/108/52
f 30/24/53 29/89/54 32/112/55 31/90/56
f 31/10/57 32/8/58 36/110/59 35/11/60
f 33/111/61 34/36/62 38/38/63 37/39/64
f 35/11/65 36/110/66 40/92/67 39/12/68
f 37/39/69 38/38/70 42/32/71 41/97/72
f 39/12/73 40/92/74 44/20/75 43/22/76
f 41/97/77 42/32/78 46/28/79 45/109/80
f 43/22/81 44/20/82 48/108/83 47/23/84
f 28/73/85 25/25/86 30/24/87 31/90/88
f 34/36/89 28/35/85 31/10/88 35/11/90
f 38/38/91 34/36/89 35/11/90 39/12/92
f 42/32/93 38/38/91 39/12/92 43/22/94
f 46/28/95 42/32/93 43/22/94 47/23/96
f 25/25/86 46/28/95 47/23/96 30/24/87
f 20/41/97 19/95/98 26/93/99 27/34/100
f 14/87/16 13/4/15 32/88/101 29/113/102
f 21/40/103 20/41/104 27/34/105 33/37/106
f 13/4/20 18/3/19 36/7/107 32/88/108
f 22/42/109 21/40/110 33/37/111 37/96/112
f 18/3/24 17/6/23 40/9/113 36/7/114
f 23/33/115 22/42/116 37/96/117 41/31/118
f 17/6/28 16/16/27 44/91/119 40/9/120
f 24/30/121 23/33/122 41/31/123 45/27/124
f 16/16/32 15/15/31 48/19/125 44/91/126
f 19/29/127 24/30/128 45/27/129 26/115/130
f 15/15/36 14/18/35 29/21/131 48/19/132
f 49/98/133 50/44/134 60/45/135 59/104/136
f 50/44/137 49/98/138 51/106/139 52/100/140
f 52/52/141 51/53/142 53/105/143 54/55/144
f 54/55/145 53/105/146 55/102/147 56/59/148
f 56/59/149 55/102/150 57/48/151 58/47/152
f 58/47/153 57/48/154 59/104/155 60/45/156
f 7/50/157 8/101/158 51/99/159 49/43/160
f 8/56/161 9/57/162 53/54/163 51/107/164
f 9/57/165 10/60/166 55/58/167 53/54/168
f 10/60/169 11/51/170 57/103/171 55/58/172
f 11/51/173 12/49/174 59/46/175 57/103/176
f 12/49/177 7/50/178 49/43/179 59/46/180
f 50/74/181 52/75/182 19/76/183 20/77/184
f 52/75/182 54/78/185 24/79/186 19/76/183
f 54/78/185 56/82/187 23/83/188 24/79/186
f 56/82/187 58/84/189 22/85/190 23/83/188
f 58/84/189 60/80/191 21/81/192 22/85/190
f 60/80/191 50/74/181 20/77/184 21/81/192
