# This file uses centimeters as units for non-parametric coordinates.

v 0.184346 -0.119430 0.199961
v 0.298002 0.113768 0.199961
v 0.000447 0.257892 0.199961
v -0.297108 0.113768 0.199961
v -0.183452 -0.119430 0.199961
v -0.297108 0.113768 -0.200039
v -0.183452 -0.119430 -0.200039
v -0.219972 -0.152941 -0.000039
v -0.356199 0.126568 -0.000039
v 0.184346 -0.119430 -0.200039
v 0.220867 -0.152941 -0.000039
v 0.298002 0.113768 -0.200039
v 0.357093 0.126568 -0.000039
v 0.000447 0.257892 -0.200039
v 0.000447 0.299314 -0.000039
vt 0.403914 0.709246
vt 0.520513 0.747132
vt 0.592576 0.647947
vt 0.520513 0.548762
vt 0.403914 0.586647
vt 0.000000 0.358579
vt 0.200000 0.358579
vt 0.200000 0.500000
vt 0.000000 0.500000
vt 0.233137 0.358579
vt 0.400000 0.358579
vt 0.400000 0.500000
vt 0.433137 0.358579
vt 0.600000 0.358579
vt 0.600000 0.500000
vt 0.633137 0.358579
vt 0.800000 0.358579
vt 0.800000 0.500000
vt 0.800000 0.358579
vt 1.000000 0.358579
vt 1.000000 0.500000
vt 0.200000 0.641421
vt 0.000000 0.641421
vt 0.400000 0.641421
vt 0.200000 0.641421
vt 0.566863 0.641421
vt 0.400000 0.641421
vt 0.800000 0.641421
vt 0.600000 0.641421
vt 1.000000 0.641421
vt 0.800000 0.641421
vt 0.592576 0.102053
vt 0.520513 0.002868
vt 0.403914 0.040754
vt 0.403914 0.163353
vt 0.520513 0.201238
vn 0.000000 0.000000 1.000000
vn 0.000000 0.000000 1.000000
vn 0.000000 0.000000 1.000000
vn 0.000000 0.000000 1.000000
vn 0.000000 0.000000 1.000000
vn -0.874581 -0.426253 -0.231120
vn -0.874581 -0.426253 -0.231120
vn -0.874581 -0.426253 -0.231120
vn -0.874581 -0.426253 -0.231120
vn 0.000000 -0.986252 -0.165249
vn 0.000000 -0.986252 -0.165249
vn 0.000000 -0.986252 -0.165249
vn 0.000000 -0.986252 -0.165249
vn 0.874581 -0.426253 -0.231120
vn 0.874581 -0.426253 -0.231120
vn 0.874581 -0.426253 -0.231120
vn 0.874581 -0.426253 -0.231120
vn 0.428538 0.884748 -0.183238
vn 0.428538 0.884748 -0.183238
vn 0.428538 0.884748 -0.183238
vn 0.428538 0.884748 -0.183238
vn -0.428538 0.884748 -0.183238
vn -0.428538 0.884748 -0.183238
vn -0.428538 0.884748 -0.183238
vn -0.428538 0.884748 -0.183238
vn -0.874581 -0.426253 0.231120
vn -0.874581 -0.426253 0.231120
vn -0.874581 -0.426253 0.231120
vn -0.874581 -0.426253 0.231120
vn 0.000000 -0.986252 0.165249
vn 0.000000 -0.986252 0.165249
vn 0.000000 -0.986252 0.165249
vn 0.000000 -0.986252 0.165249
vn 0.874581 -0.426253 0.231120
vn 0.874581 -0.426253 0.231120
vn 0.874581 -0.426253 0.231120
vn 0.874581 -0.426253 0.231120
vn 0.428538 0.884748 0.183238
vn 0.428538 0.884748 0.183238
vn 0.428538 0.884748 0.183238
vn 0.428538 0.884748 0.183238
vn -0.428538 0.884748 0.183238
vn -0.428538 0.884748 0.183238
vn -0.428538 0.884748 0.183238
vn -0.428538 0.884748 0.183238
vn 0.000000 0.000000 -1.000000
vn 0.000000 0.000000 -1.000000
vn 0.000000 0.000000 -1.000000
vn 0.000000 0.000000 -1.000000
vn 0.000000 0.000000 -1.000000
f 2/2/1 3/3/2 1/1/3
f 1/1/3 3/3/2 5/5/4
f 3/3/2 4/4/5 5/5/4
f 7/7/6 8/8/7 6/6/8
f 6/6/8 8/8/7 9/9/9
f 7/10/10 10/11/11 8/8/12
f 8/8/12 10/11/11 11/12/13
f 10/13/14 12/14/15 11/12/16
f 11/12/16 12/14/15 13/15/17
f 14/17/18 15/18/19 12/16/20
f 12/16/20 15/18/19 13/15/21
f 14/19/22 6/20/23 15/18/24
f 15/18/24 6/20/23 9/21/25
f 5/22/26 4/23/27 8/8/28
f 8/8/28 4/23/27 9/9/29
f 1/24/30 5/25/31 11/12/32
f 11/12/32 5/25/31 8/8/33
f 1/27/34 11/12/35 2/26/36
f 2/26/36 11/12/35 13/15/37
f 3/28/38 2/29/39 15/18/40
f 15/18/40 2/29/39 13/15/41
f 3/31/42 15/18/43 4/30/44
f 4/30/44 15/18/43 9/21/45
f 12/33/46 10/34/47 14/32/48
f 10/34/47 7/35/49 14/32/48
f 14/32/48 7/35/49 6/36/50
