# This file uses centimeters as units for non-parametric coordinates.

v -0.572708 -3.837392 6.515929
v 0.572708 -3.837392 6.515929
v -0.142776 3.837392 6.515929
v 0.341570 3.837392 6.515929
v -0.142776 3.837392 -6.213348
v 0.341570 3.837392 -6.213348
v -0.572708 -3.837392 -6.213348
v 0.572708 -3.837392 -6.213348
vt 0.042972 0.021391
vt 0.875858 0.021391
vt 0.875858 0.503607
vt 0.042972 0.503607
vt 0.570990 0.785511
vt 0.570990 0.619686
vt 0.646666 0.619686
vt 0.646666 0.785511
vt 0.695548 0.932706
vt 0.570990 0.932706
vt 0.744430 0.540551
vt 0.820107 0.540551
vt 0.820107 0.932706
vt 0.917871 0.619686
vt 0.917871 0.785511
vn 0.000000 0.000000 1.000000
vn 0.000000 0.000000 1.000000
vn 0.000000 0.000000 1.000000
vn 0.000000 0.000000 1.000000
vn 0.000000 1.000000 0.000000
vn 0.000000 1.000000 0.000000
vn 0.000000 1.000000 0.000000
vn 0.000000 1.000000 0.000000
vn 0.000000 0.000000 -1.000000
vn 0.000000 0.000000 -1.000000
vn 0.000000 0.000000 -1.000000
vn 0.000000 0.000000 -1.000000
vn 0.000000 -1.000000 0.000000
vn 0.000000 -1.000000 0.000000
vn 0.000000 -1.000000 0.000000
vn 0.000000 -1.000000 0.000000
vn 0.999547 0.030103 0.000000
vn 0.999547 0.030103 0.000000
vn 0.999547 0.030103 0.000000
vn 0.999547 0.030103 0.000000
vn -0.998435 0.055931 0.000000
vn -0.998435 0.055931 0.000000
vn -0.998435 0.055931 0.000000
vn -0.998435 0.055931 0.000000
f 1/13/1 2/12/2 4/14/3 3/15/4
f 3/5/5 4/6/6 6/7/7 5/8/8
f 5/8/9 6/7/10 8/11/11 7/9/12
f 7/9/13 8/11/14 2/12/15 1/13/16
f 2/1/17 8/2/18 6/3/19 4/4/20
f 7/9/21 1/10/22 3/5/23 5/8/24
