# This file uses centimeters as units for non-parametric coordinates.

v -0.681167 -2.006433 0.675151
v -0.579059 -2.006433 0.675151
v -0.681167 2.006433 0.675151
v -0.579059 2.006433 0.675151
v -0.681167 2.006433 -0.490284
v -0.579059 2.006433 -0.490284
v -0.681167 -2.006433 -0.490284
v -0.579059 -2.006433 -0.490284
vt 0.591926 0.032981
vt 0.840302 0.036826
vt 0.840302 0.752392
vt 0.591926 0.752392
vt 0.464924 0.920562
vt 0.839810 0.036322
vt 0.700614 0.920562
vt 0.818459 0.920562
vt 0.700614 0.802717
vt 0.818459 0.802717
vt 0.464924 0.802717
vt 0.582769 0.802717
vt 0.582769 0.920562
vt 0.936304 0.802717
vt 0.936304 0.920562
vt 0.592419 0.032493
vt 0.592419 0.752881
vt 0.839810 0.752881
vn 0.000000 0.000000 1.000000
vn 0.000000 0.000000 1.000000
vn 0.000000 0.000000 1.000000
vn 0.000000 0.000000 1.000000
vn 0.000000 1.000000 0.000000
vn 0.000000 1.000000 0.000000
vn 0.000000 1.000000 0.000000
vn 0.000000 1.000000 0.000000
vn 0.000000 0.000000 -1.000000
vn 0.000000 0.000000 -1.000000
vn 0.000000 0.000000 -1.000000
vn 0.000000 0.000000 -1.000000
vn 0.000000 -1.000000 0.000000
vn 0.000000 -1.000000 0.000000
vn 0.000000 -1.000000 0.000000
vn 0.000000 -1.000000 0.000000
vn 1.000000 0.000000 0.000000
vn 1.000000 0.000000 0.000000
vn 1.000000 0.000000 0.000000
vn 1.000000 0.000000 0.000000
vn -1.000000 0.000000 0.000000
vn -1.000000 0.000000 0.000000
vn -1.000000 0.000000 0.000000
vn -1.000000 0.000000 0.000000
f 1/13/1 2/12/2 4/9/3 3/7/4
f 3/7/5 4/9/6 6/10/7 5/8/8
f 5/8/9 6/10/10 8/14/11 7/15/12
f 7/5/13 8/11/14 2/12/15 1/13/16
f 2/1/17 8/2/18 6/3/19 4/4/20
f 7/16/21 1/6/22 3/18/23 5/17/24
v -0.888673 2.285818 -0.592314
v -0.377783 2.285818 -0.592314
v -0.888673 2.110609 -0.696604
v -0.377783 2.110609 -0.696604
v -0.888673 -0.000000 -0.696604
v -0.377783 -0.000000 -0.696604
v -0.888673 -2.110609 -0.696604
v -0.377783 -2.110609 -0.696604
v -0.888673 -2.292486 -0.592314
v -0.377783 -2.292486 -0.592314
v -0.377783 0.000000 -0.592314
v -0.888673 0.000000 -0.592314
v -0.888673 2.233678 -0.696604
v -0.888673 2.285818 -0.644464
v -0.377783 2.233678 -0.696604
v -0.377783 2.285818 -0.644464
v -0.888673 -2.292486 -0.644464
v -0.888673 -2.240346 -0.696604
v -0.377783 -2.292486 -0.644464
v -0.377783 -2.240346 -0.696604
v -0.888673 -2.292486 0.653287
v -0.888673 -2.248688 0.697085
v -0.377783 -2.292486 0.653287
v -0.377783 -2.248688 0.697085
v -0.888673 -2.110609 0.653287
v -0.888673 -2.154407 0.697085
v -0.377783 -2.110609 0.653287
v -0.377783 -2.154407 0.697085
v -0.888673 2.110609 0.653287
v -0.888673 2.154407 0.697085
v -0.377783 2.110609 0.653287
v -0.377783 2.154407 0.697085
v -0.888673 2.285818 0.653287
v -0.888673 2.242020 0.697085
v -0.377783 2.285818 0.653287
v -0.377783 2.242020 0.697085
v -0.377783 2.049523 -0.592314
v -0.377783 2.110609 -0.644454
v -0.377783 2.162748 -0.592314
v -0.377783 2.110609 -0.531228
v -0.888673 2.110609 -0.531228
v -0.888673 2.162748 -0.592314
v -0.888673 2.110609 -0.644454
v -0.888673 2.049523 -0.592314
v -0.377783 -2.110609 -0.531228
v -0.377783 -2.162748 -0.592314
v -0.377783 -2.110609 -0.644454
v -0.377783 -2.049523 -0.592314
v -0.888673 -2.049523 -0.592314
v -0.888673 -2.110609 -0.644454
v -0.888673 -2.162748 -0.592314
v -0.888673 -2.110609 -0.531228
vt 0.298498 0.633325
vt 0.295088 0.638390
vt 0.296353 0.629958
vt 0.289884 0.637269
vt 0.461485 0.597724
vt 0.291563 0.643680
vt 0.304467 0.626562
vt 0.289866 0.629638
vt 0.289022 0.645155
vt 0.233554 0.676498
vt 0.479983 0.593353
vt 0.224838 0.664724
vt 0.462492 0.603281
vt 0.178629 0.715760
vt 0.461914 0.601416
vt 0.185610 0.717907
vt 0.193107 0.718998
vt 0.177992 0.722242
vt 0.170092 0.726844
vt 0.191114 0.721092
vt 0.185546 0.723308
vt 0.041840 0.842289
vt 0.179831 0.725747
vt 0.038382 0.838280
vt 0.037121 0.846627
vt 0.035148 0.844666
vt 0.334631 0.705524
vt 0.428026 0.621475
vt 0.336448 0.709898
vt 0.342503 0.706960
vt 0.329179 0.705720
vt 0.430282 0.622697
vt 0.335546 0.713382
vt 0.328562 0.710195
vt 0.434404 0.619324
vt 0.281744 0.740426
vt 0.323914 0.706298
vt 0.432562 0.619456
vt 0.290535 0.753152
vt 0.321345 0.707180
vt 0.233733 0.772913
vt 0.233675 0.780108
vt 0.234467 0.786932
vt 0.231554 0.774130
vt 0.224830 0.792711
vt 0.230149 0.786008
vt 0.228985 0.779047
vt 0.093005 0.896192
vt 0.096772 0.899514
vt 0.226698 0.783725
vt 0.088992 0.902103
vt 0.091548 0.902061
vt 0.396621 0.750887
vt 0.390022 0.759521
vt 0.273682 0.850722
vt 0.137403 0.958491
vt 0.281159 0.845240
vt 0.131636 0.961646
vt 0.129283 0.962894
vt 0.336490 0.807539
vn 0.000000 0.000000 1.000000
vn 0.000000 0.000000 1.000000
vn 0.000000 0.000000 1.000000
vn 0.000000 0.000000 1.000000
vn 0.000000 0.000000 1.000000
vn 0.000000 0.000000 1.000000
vn 0.000000 0.000000 1.000000
vn 0.000000 0.000000 1.000000
vn 0.000000 1.000000 0.000000
vn 0.000000 1.000000 0.000000
vn 0.000000 1.000000 0.000000
vn 0.000000 1.000000 0.000000
vn 0.000000 1.000000 0.000000
vn 0.000000 1.000000 0.000000
vn 0.000000 0.000000 -1.000000
vn 0.000000 0.000000 -1.000000
vn 0.000000 0.000000 -1.000000
vn 0.000000 0.000000 -1.000000
vn 0.000000 0.000000 -1.000000
vn 0.000000 0.000000 -1.000000
vn 0.000000 0.000000 -1.000000
vn 0.000000 0.000000 -1.000000
vn 0.000000 0.000000 -1.000000
vn 0.000000 0.000000 -1.000000
vn 0.000000 -1.000000 0.000000
vn 0.000000 -1.000000 0.000000
vn 0.000000 -1.000000 0.000000
vn 0.000000 -1.000000 0.000000
vn 0.000000 -1.000000 0.000000
vn 0.000000 -1.000000 0.000000
vn 1.000000 0.000000 0.000000
vn 1.000000 -0.000000 0.000000
vn 1.000000 0.000000 0.000000
vn 1.000000 -0.000000 0.000000
vn 1.000000 -0.000000 0.000000
vn 1.000000 0.000000 0.000000
vn 1.000000 0.000000 0.000000
vn 1.000000 0.000000 0.000000
vn 1.000000 0.000000 0.000000
vn 1.000000 0.000000 0.000000
vn 1.000000 0.000000 0.000000
vn -1.000000 0.000000 0.000000
vn -1.000000 -0.000000 0.000000
vn -1.000000 -0.000000 0.000000
vn -1.000000 -0.000000 0.000000
vn -1.000000 0.000000 0.000000
vn -1.000000 0.000000 0.000000
vn -1.000000 0.000000 0.000000
vn -1.000000 0.000000 0.000000
vn -1.000000 0.000000 0.000000
vn -1.000000 0.000000 0.000000
vn -1.000000 0.000000 0.000000
vn -1.000000 0.000000 0.000000
vn -1.000000 0.000000 0.000000
vn -1.000000 0.000000 0.000000
vn -1.000000 0.000000 0.000000
vn -1.000000 0.000000 0.000000
vn -1.000000 0.000000 0.000000
vn -1.000000 0.000000 0.000000
vn -1.000000 0.000000 0.000000
vn 0.000000 1.000000 0.000000
vn 0.000000 1.000000 0.000000
vn 0.000000 1.000000 0.000000
vn 0.000000 1.000000 0.000000
vn 0.000000 -1.000000 0.000000
vn 0.000000 -1.000000 0.000000
vn 0.000000 -1.000000 0.000000
vn 0.000000 -1.000000 0.000000
vn 0.000000 0.000000 1.000000
vn 0.000000 0.000000 1.000000
vn 0.000000 0.000000 1.000000
vn 0.000000 0.000000 1.000000
vn 0.000000 0.000000 1.000000
vn 0.000000 0.000000 1.000000
vn -1.000000 0.000000 0.000000
vn -1.000000 0.000000 0.000000
vn 0.000000 0.707106 -0.707108
vn 0.000000 0.707106 -0.707108
vn 0.000000 0.707106 -0.707108
vn 0.000000 0.707106 -0.707108
vn 0.000000 -0.707101 -0.707112
vn 0.000000 -0.707101 -0.707112
vn 0.000000 -0.707101 -0.707112
vn 0.000000 -0.707101 -0.707112
vn 1.000000 0.000000 0.000000
vn 1.000000 0.000000 0.000000
vn 1.000000 0.000000 0.000000
vn 1.000000 0.000000 0.000000
vn 1.000000 0.000000 0.000000
vn 1.000000 0.000000 0.000000
vn 1.000000 -0.000000 0.000000
vn 1.000000 -0.000000 0.000000
vn 1.000000 -0.000001 0.000000
vn 1.000000 0.000000 0.000000
vn 1.000000 0.000000 0.000000
vn 1.000000 0.000000 0.000000
vn 0.000000 -0.707105 0.707108
vn 0.000000 -0.707105 0.707108
vn 0.000000 -0.707105 0.707108
vn 0.000000 -0.707105 0.707108
vn 0.000000 0.707107 0.707106
vn 0.000000 0.707107 0.707106
vn 0.000000 0.707107 0.707106
vn 0.000000 0.707107 0.707106
vn 0.000000 -0.707107 0.707106
vn 0.000000 -0.707107 0.707106
vn 0.000000 -0.707107 0.707106
vn 0.000000 -0.707107 0.707106
vn 0.000000 0.707107 0.707106
vn 0.000000 0.707107 0.707106
vn 0.000000 0.707107 0.707106
vn 0.000000 0.707107 0.707106
vn 1.000000 0.000000 0.000000
vn 1.000000 0.000000 0.000000
vn -1.000000 0.000000 0.000000
vn -1.000000 0.000000 0.000000
vn -1.000000 0.000000 0.000000
vn -1.000000 0.000000 0.000000
vn -1.000000 0.000000 0.000000
vn 0.000000 -0.707105 0.707108
vn 0.000000 -0.707105 0.707108
vn 0.000000 -0.707105 0.707108
vn 0.000000 -0.707105 0.707108
vn 1.000000 0.000000 0.000000
vn 0.000000 0.707105 0.707108
vn 0.000000 0.707105 0.707108
vn 0.000000 0.707105 0.707108
vn 0.000000 0.707105 0.707108
f 30/56/25 32/33/26 36/31/27 34/53/28
f 38/70/29 40/76/30 44/77/31 42/69/32
f 41/66/33 43/40/34 10/41/35 9/68/36
f 9/68/36 10/41/35 24/39/37 22/65/38
f 21/62/39 23/38/40 12/35/41 11/59/42
f 11/59/42 12/35/41 14/28/43 13/54/44
f 13/54/44 14/28/43 16/27/45 15/58/46
f 15/58/46 16/27/45 28/24/47 26/55/48
f 25/49/49 27/20/50 18/19/51 17/45/52
f 17/45/52 18/19/51 31/23/53 29/46/54
f 18/19/55 27/20/56 54/21/57
f 54/21/57 27/20/56 55/22/58
f 27/20/56 28/24/59 55/22/58
f 28/24/59 16/27/60 55/22/58
f 19/30/61 14/28/62 45/32/63
f 12/35/64 46/34/65 14/28/62
f 14/28/62 46/34/65 45/32/63
f 17/45/66 29/46/67 59/47/68
f 59/47/68 29/46/67 60/48/69
f 30/56/70 34/53/71 29/46/67
f 34/53/71 33/50/72 29/46/67
f 29/46/67 33/50/72 60/48/69
f 15/58/73 58/52/74 13/54/75
f 58/52/74 57/51/76 13/54/75
f 57/51/76 20/57/77 13/54/75
f 13/54/75 20/57/77 11/59/78
f 11/59/78 20/57/77 51/60/79
f 20/57/77 52/61/80 51/60/79
f 11/59/78 51/60/79 21/62/81
f 21/62/81 51/60/79 22/65/82
f 51/60/79 50/64/83 22/65/82
f 50/64/83 9/68/84 22/65/82
f 33/50/85 35/29/86 53/71/87 60/48/88
f 49/63/89 48/73/90 39/74/91 37/67/92
f 45/75/93 52/61/94 19/78/95
f 52/61/94 20/57/96 19/78/95
f 19/78/95 20/57/96 56/72/97
f 20/57/96 57/51/98 56/72/97
f 17/45/66 59/47/68 25/49/99
f 59/47/68 58/52/74 25/49/99
f 25/49/99 58/52/74 26/55/100
f 26/55/100 58/52/74 15/58/73
f 21/62/101 22/65/102 24/39/103 23/38/104
f 25/49/105 26/55/106 28/24/107 27/20/108
f 18/19/55 54/21/57 31/23/109
f 54/21/57 53/25/110 31/23/109
f 32/33/111 31/23/109 36/31/112
f 36/31/112 31/23/109 35/29/113
f 31/23/109 53/25/110 35/29/113
f 10/41/114 43/40/115 47/36/116
f 47/36/116 43/40/115 48/37/117
f 40/44/118 39/42/119 44/43/120
f 44/43/120 39/42/119 43/40/115
f 39/42/119 48/37/117 43/40/115
f 30/56/121 29/46/122 31/23/123 32/33/124
f 33/50/125 34/53/126 36/31/127 35/29/128
f 38/70/129 37/67/130 39/74/131 40/76/132
f 41/66/133 42/69/134 44/43/135 43/40/136
f 12/35/64 23/38/137 46/34/65
f 23/38/137 24/39/138 46/34/65
f 46/34/65 24/39/138 47/36/116
f 47/36/116 24/39/138 10/41/114
f 9/68/84 50/64/83 41/66/139
f 50/64/83 49/63/140 41/66/139
f 38/70/141 42/69/142 37/67/143
f 42/69/142 41/66/139 37/67/143
f 49/63/140 37/67/143 41/66/139
f 45/75/144 48/73/145 49/63/146 52/61/147
f 45/32/63 46/34/65 47/36/116 48/37/117
f 49/63/140 50/64/83 51/60/79 52/61/80
f 16/27/60 14/28/62 55/22/58
f 55/22/58 14/28/62 56/26/148
f 56/26/148 14/28/62 19/30/61
f 53/71/149 56/72/150 57/51/151 60/48/152
f 53/25/110 54/21/57 55/22/58 56/26/148
f 57/51/76 58/52/74 59/47/68 60/48/69
