# This file uses centimeters as units for non-parametric coordinates.

v 0.446994 -3.187443 -0.235503
v 0.366025 -3.187443 -0.394414
v 0.239912 -3.187443 -0.520526
v 0.081001 -3.187443 -0.601496
v -0.095154 -3.187443 -0.629396
v -0.271308 -3.187443 -0.601496
v -0.430220 -3.187443 -0.520526
v -0.556332 -3.187443 -0.394414
v -0.637302 -3.187443 -0.235503
v -0.665202 -3.187443 -0.059348
v -0.637302 -3.187443 0.116806
v -0.556332 -3.187443 0.275718
v -0.430220 -3.187443 0.401831
v -0.271308 -3.187443 0.482800
v -0.095154 -3.187443 0.510700
v 0.081001 -3.187443 0.482800
v 0.239912 -3.187443 0.401831
v 0.366025 -3.187443 0.275718
v 0.446994 -3.187443 0.116806
v 0.474894 -3.187443 -0.059348
v -0.095154 -3.187443 -0.059348
v -0.095154 -2.453399 -0.059348
v 0.446994 -2.778256 -0.235503
v 0.175948 -2.453399 -0.147434
v 0.366025 -2.778256 -0.394414
v 0.135459 -2.453399 -0.226899
v 0.239912 -2.778256 -0.520526
v 0.072397 -2.453399 -0.289961
v 0.081001 -2.778256 -0.601496
v -0.007068 -2.453399 -0.330451
v -0.095154 -2.778256 -0.629396
v -0.095154 -2.453399 -0.344402
v -0.271308 -2.778256 -0.601496
v -0.183240 -2.453399 -0.330451
v -0.430220 -2.778256 -0.520526
v -0.262704 -2.453399 -0.289961
v -0.556332 -2.778256 -0.394414
v -0.325767 -2.453399 -0.226899
v -0.637302 -2.778256 -0.235503
v -0.366256 -2.453399 -0.147434
v -0.665202 -2.778256 -0.059348
v -0.380207 -2.453399 -0.059348
v -0.637302 -2.778256 0.116806
v -0.366256 -2.453399 0.028738
v -0.556332 -2.778256 0.275718
v -0.325767 -2.453399 0.108202
v -0.430220 -2.778256 0.401831
v -0.262704 -2.453399 0.171265
v -0.271308 -2.778256 0.482800
v -0.183240 -2.453399 0.211753
v -0.095154 -2.778256 0.510700
v -0.095154 -2.453399 0.225706
v 0.081001 -2.778256 0.482800
v -0.007068 -2.453399 0.211753
v 0.239912 -2.778256 0.401831
v 0.072397 -2.453399 0.171265
v 0.366025 -2.778256 0.275718
v 0.135459 -2.453399 0.108202
v 0.446994 -2.778256 0.116806
v 0.175948 -2.453399 0.028738
v 0.474894 -2.778256 -0.059348
v 0.189900 -2.453399 -0.059348
v -0.099186 -2.532588 -0.027511
v 0.286106 -2.350117 -0.027511
v 2.850668 -1.135563 -0.027511
v 3.286607 -0.929106 -0.027511
v -0.263737 -2.185133 0.140901
v 0.121554 -2.002662 0.140901
v 2.686117 -0.788108 0.140901
v 3.122055 -0.581651 0.140901
v -1.394437 0.202370 1.298119
v -1.009146 0.384841 1.298119
v 1.555417 1.599395 1.298119
v 1.991355 1.805852 1.298119
v -1.567928 0.568700 1.475678
v -1.182636 0.751170 1.475678
v 1.381926 1.965724 1.475678
v 1.817865 2.172181 1.475678
v -1.639891 0.720651 1.091867
v -1.254599 0.903122 1.091867
v 1.309963 2.117676 1.091867
v 1.745902 2.324133 1.091867
v -2.139824 1.776273 -1.574505
v -1.754533 1.958744 -1.574505
v 0.810030 3.173298 -1.574505
v 1.245969 3.379755 -1.574505
v -2.211319 1.927236 -1.955818
v -1.826027 2.109707 -1.955818
v 0.738536 3.324260 -1.955818
v 1.174474 3.530718 -1.955818
v -2.037828 1.560907 -2.133378
v -1.652537 1.743377 -2.133378
v 0.912026 2.957931 -2.133378
v 1.347965 3.164388 -2.133378
v -0.907128 -0.826596 -3.290596
v -0.521837 -0.644126 -3.290596
v 2.042726 0.570429 -3.290596
v 2.478665 0.776885 -3.290596
v -0.742577 -1.174051 -3.459007
v -0.357285 -0.991580 -3.459007
v 2.207278 0.222974 -3.459007
v 2.643216 0.429430 -3.459007
v -0.671082 -1.325014 -3.077694
v -0.285791 -1.142543 -3.077694
v 2.278772 0.072011 -3.077694
v 2.714711 0.278468 -3.077694
v -0.171149 -2.380636 -0.411321
v 0.214143 -2.198165 -0.411321
v 2.778705 -0.983611 -0.411321
v 3.214644 -0.777154 -0.411321
v 2.550159 0.625923 -2.909283
v 3.050092 -0.429700 -0.242910
v 1.419459 3.013426 -1.752064
v 1.919392 1.957803 0.914309
v -0.835633 -0.977559 -2.909283
v -0.335700 -2.033181 -0.242910
v -1.966334 1.409944 -1.752064
v -1.466400 0.354322 0.914309
vt 0.529372 0.127374
vt 0.517386 0.196048
vt 0.505397 0.196048
vt 0.505397 0.127374
vt 0.551001 0.127374
vt 0.528201 0.196048
vt 0.493407 0.196048
vt 0.481420 0.127374
vt 0.505396 0.040873
vt 0.529372 0.040873
vt 0.551001 0.040873
vt 0.568166 0.127374
vt 0.536785 0.196048
vt 0.482592 0.196048
vt 0.459791 0.127374
vt 0.481420 0.040873
vt 0.568166 0.040873
vt 0.474008 0.196048
vt 0.442626 0.127374
vt 0.459791 0.040873
vt 0.442626 0.040873
vt 0.699341 0.196048
vt 0.676541 0.127374
vt 0.698170 0.127374
vt 0.710157 0.196048
vt 0.690758 0.196048
vt 0.659376 0.127374
vt 0.676541 0.040872
vt 0.698170 0.040872
vt 0.722146 0.127374
vt 0.722146 0.196048
vt 0.659376 0.040872
vt 0.722146 0.040872
vt 0.746122 0.127374
vt 0.734135 0.196048
vt 0.746122 0.040872
vt 0.767751 0.127374
vt 0.744951 0.196048
vt 0.767751 0.040872
vt 0.784916 0.127374
vt 0.753534 0.196048
vt 0.784916 0.040872
vt 0.217390 0.063846
vt 0.231279 0.091104
vt 0.138283 0.121320
vt 0.236065 0.121320
vt 0.195758 0.042213
vt 0.231279 0.151537
vt 0.168499 0.028324
vt 0.217390 0.178795
vt 0.138283 0.023538
vt 0.195758 0.200428
vt 0.108067 0.028324
vt 0.168499 0.214317
vt 0.080808 0.042213
vt 0.138283 0.219102
vt 0.059176 0.063846
vt 0.108067 0.214317
vt 0.045287 0.091104
vt 0.080808 0.200428
vt 0.040501 0.121320
vt 0.059176 0.178795
vt 0.045287 0.151537
vt 0.374960 0.129644
vt 0.368015 0.143275
vt 0.328458 0.114534
vt 0.357198 0.154092
vt 0.377354 0.114534
vt 0.343567 0.161038
vt 0.374961 0.099425
vt 0.328458 0.163431
vt 0.368015 0.085794
vt 0.313348 0.161038
vt 0.357198 0.074977
vt 0.299717 0.154092
vt 0.343567 0.068032
vt 0.288900 0.143275
vt 0.328458 0.065638
vt 0.281955 0.129644
vt 0.313348 0.068032
vt 0.279562 0.114534
vt 0.299717 0.074977
vt 0.281955 0.099425
vt 0.288900 0.085794
vt 0.590967 0.196048
vt 0.589795 0.127374
vt 0.601782 0.196048
vt 0.589795 0.040873
vt 0.613771 0.127374
vt 0.613771 0.196048
vt 0.613771 0.040872
vt 0.637747 0.127374
vt 0.625761 0.196048
vt 0.637747 0.040872
vt 0.636576 0.196048
vt 0.807716 0.196048
vt 0.806545 0.127374
vt 0.818532 0.196048
vt 0.806545 0.040872
vt 0.830521 0.127374
vt 0.830521 0.196048
vt 0.830521 0.040872
vt 0.854497 0.127374
vt 0.842510 0.196048
vt 0.854497 0.040872
vt 0.876126 0.127374
vt 0.853325 0.196048
vt 0.876126 0.040872
vt 0.481328 0.508672
vt 0.497897 0.508672
vt 0.497897 0.524984
vt 0.481328 0.524984
vt 0.608184 0.508672
vt 0.608184 0.524984
vt 0.626931 0.508672
vt 0.626931 0.524984
vt 0.497897 0.637075
vt 0.481328 0.637075
vt 0.626931 0.637075
vt 0.608184 0.637075
vt 0.497897 0.654274
vt 0.481328 0.654274
vt 0.608184 0.654274
vt 0.626931 0.654274
vt 0.630011 0.508672
vt 0.646580 0.508672
vt 0.646580 0.524957
vt 0.630011 0.524957
vt 0.756867 0.508672
vt 0.756867 0.524957
vt 0.775614 0.508672
vt 0.775614 0.524957
vt 0.646580 0.638094
vt 0.630011 0.638094
vt 0.775614 0.638094
vt 0.756867 0.638094
vt 0.646580 0.654274
vt 0.630011 0.654274
vt 0.756867 0.654274
vt 0.775614 0.654274
vt 0.778603 0.508672
vt 0.795172 0.508672
vt 0.795172 0.525870
vt 0.778603 0.525870
vt 0.905458 0.508672
vt 0.905458 0.525870
vt 0.924206 0.508672
vt 0.924206 0.525870
vt 0.795172 0.637961
vt 0.778603 0.637961
vt 0.924206 0.637961
vt 0.905458 0.637961
vt 0.795172 0.654274
vt 0.778603 0.654274
vt 0.905458 0.654274
vt 0.924206 0.654274
vt 0.801604 0.656141
vt 0.818173 0.656141
vt 0.818173 0.672320
vt 0.801604 0.672320
vt 0.928460 0.656141
vt 0.928460 0.672320
vt 0.947207 0.656141
vt 0.947207 0.672320
vt 0.818173 0.785458
vt 0.801604 0.785458
vt 0.947207 0.785458
vt 0.928460 0.785458
vt 0.818173 0.801743
vt 0.801604 0.801743
vt 0.928460 0.801743
vt 0.947207 0.801743
vt 0.782555 0.656141
vt 0.798735 0.656141
vt 0.798735 0.672454
vt 0.782555 0.672454
vt 0.669418 0.656141
vt 0.669418 0.672454
vt 0.653132 0.656141
vt 0.653132 0.672454
vt 0.798735 0.784544
vt 0.782555 0.784544
vt 0.669418 0.784544
vt 0.653132 0.784544
vt 0.798735 0.801743
vt 0.782555 0.801743
vt 0.669418 0.801743
vt 0.653132 0.801743
vt 0.504660 0.656141
vt 0.520840 0.656141
vt 0.520840 0.672454
vt 0.504660 0.672454
vt 0.633977 0.656141
vt 0.633977 0.672454
vt 0.650262 0.656141
vt 0.650262 0.672454
vt 0.520840 0.784545
vt 0.504660 0.784545
vt 0.650262 0.784545
vt 0.633977 0.784545
vt 0.520840 0.801744
vt 0.504660 0.801744
vt 0.633977 0.801744
vt 0.650262 0.801744
vt 0.481328 0.932014
vt 0.481328 0.819923
vt 0.497614 0.819923
vt 0.497614 0.932014
vt 0.626931 0.819923
vt 0.626931 0.932014
vt 0.610751 0.932014
vt 0.610751 0.819923
vt 0.481328 0.819923
vt 0.497614 0.803610
vt 0.497614 0.803610
vt 0.610751 0.803610
vt 0.626931 0.819923
vt 0.610751 0.803610
vt 0.610751 0.949213
vt 0.497614 0.949213
vt 0.740298 0.819790
vt 0.630011 0.819790
vt 0.630011 0.803610
vt 0.740298 0.803610
vt 0.740298 0.949213
vt 0.630011 0.949213
vt 0.630011 0.932927
vt 0.740298 0.932927
vt 0.759045 0.819790
vt 0.759045 0.932927
vt 0.497614 0.819923
vt 0.610751 0.819923
vt 0.778480 0.803610
vt 0.778480 0.915701
vt 0.762194 0.915701
vt 0.762194 0.803610
vt 0.740298 0.803610
vt 0.759045 0.819790
vn 0.000000 -1.000000 -0.000001
vn 0.000000 -1.000000 -0.000000
vn 0.000000 -1.000000 0.000000
vn 0.000000 -1.000000 0.000001
vn 0.000000 -1.000000 0.000001
vn 0.000000 -1.000000 0.000000
vn 0.000000 -1.000000 0.000000
vn 0.000000 -1.000000 0.000000
vn 0.000000 -1.000000 0.000000
vn 0.000000 -1.000000 0.000000
vn 0.000000 -1.000000 0.000000
vn 0.000000 -1.000000 -0.000001
vn 0.000000 -1.000000 0.000000
vn 0.000000 -1.000000 0.000001
vn 0.000000 -1.000000 0.000000
vn 0.000000 -1.000000 0.000000
vn 0.000000 -1.000000 0.000000
vn 0.000000 -1.000000 -0.000001
vn 0.000000 -1.000000 -0.000000
vn 0.000000 -1.000000 0.000000
vn 0.000000 -1.000000 0.000000
vn 0.714930 0.659481 -0.232294
vn 0.714930 0.659481 -0.232294
vn 0.751722 0.659481 0.000001
vn 0.751722 0.659481 0.000001
vn 0.608155 0.659481 -0.441851
vn 0.608155 0.659481 -0.441851
vn 0.441851 0.659480 -0.608156
vn 0.441851 0.659480 -0.608156
vn 0.232296 0.659481 -0.714929
vn 0.232296 0.659481 -0.714929
vn 0.000000 0.659480 -0.751722
vn 0.000000 0.659480 -0.751722
vn -0.232296 0.659481 -0.714929
vn -0.232296 0.659481 -0.714929
vn -0.441852 0.659480 -0.608155
vn -0.441852 0.659480 -0.608155
vn -0.608156 0.659481 -0.441850
vn -0.608156 0.659481 -0.441850
vn -0.714930 0.659481 -0.232294
vn -0.714930 0.659481 -0.232294
vn -0.751722 0.659481 -0.000000
vn -0.751722 0.659481 0.000000
vn -0.714930 0.659481 0.232294
vn -0.714930 0.659481 0.232294
vn -0.608156 0.659481 0.441850
vn -0.608156 0.659481 0.441850
vn -0.441849 0.659481 0.608156
vn -0.441849 0.659481 0.608156
vn -0.232296 0.659481 0.714929
vn -0.232296 0.659481 0.714929
vn -0.000000 0.659481 0.751721
vn -0.000000 0.659481 0.751721
vn 0.232296 0.659481 0.714929
vn 0.232297 0.659481 0.714929
vn 0.441849 0.659481 0.608156
vn 0.441849 0.659481 0.608156
vn 0.608156 0.659481 0.441850
vn 0.608156 0.659481 0.441850
vn 0.714930 0.659480 0.232295
vn 0.714930 0.659481 0.232295
vn 0.951057 0.000000 -0.309016
vn 0.809017 0.000000 -0.587786
vn 0.809017 0.000000 -0.587786
vn 0.951057 0.000000 -0.309016
vn 0.587785 0.000000 -0.809017
vn 0.587785 0.000000 -0.809017
vn 0.309018 0.000000 -0.951056
vn 0.309018 0.000000 -0.951056
vn -0.000000 0.000000 -1.000000
vn -0.000000 0.000000 -1.000000
vn -0.309018 0.000000 -0.951056
vn -0.309018 0.000000 -0.951056
vn -0.587786 0.000000 -0.809017
vn -0.587786 0.000000 -0.809017
vn -0.809017 0.000000 -0.587785
vn -0.809017 0.000000 -0.587785
vn -0.951057 0.000000 -0.309017
vn -0.951057 0.000000 -0.309017
vn -1.000000 0.000000 0.000000
vn -1.000000 0.000000 0.000000
vn -0.951057 0.000000 0.309017
vn -0.951057 0.000000 0.309017
vn -0.809018 0.000000 0.587784
vn -0.809018 0.000000 0.587784
vn -0.587785 0.000000 0.809017
vn -0.587785 0.000000 0.809017
vn -0.309017 0.000000 0.951057
vn -0.309017 0.000000 0.951057
vn 0.000000 0.000000 1.000000
vn 0.000000 0.000000 1.000000
vn 0.309017 0.000000 0.951057
vn 0.309017 0.000000 0.951057
vn 0.587785 0.000000 0.809017
vn 0.587785 0.000000 0.809017
vn 0.809018 0.000000 0.587784
vn 0.809018 0.000000 0.587784
vn 0.951057 0.000000 0.309017
vn 0.951057 0.000000 0.309017
vn 1.000000 0.000000 0.000001
vn 1.000000 0.000000 0.000001
vn 0.000000 1.000000 0.000000
vn 0.000000 1.000000 -0.000002
vn 0.000000 1.000000 -0.000000
vn 0.000000 1.000000 -0.000001
vn 0.000000 1.000000 0.000001
vn 0.000000 1.000000 0.000000
vn 0.000000 1.000000 0.000001
vn 0.000000 1.000000 0.000001
vn 0.000000 1.000000 0.000000
vn 0.000000 1.000000 0.000002
vn 0.000000 1.000000 0.000000
vn 0.000000 1.000000 -0.000000
vn 0.000000 1.000000 -0.000000
vn 0.000000 1.000000 -0.000004
vn 0.000000 1.000000 -0.000001
vn 0.000000 1.000000 0.000000
vn 0.000000 1.000000 -0.000000
vn 0.000000 1.000000 0.000000
vn 0.000000 1.000000 0.000000
vn 0.000000 1.000000 0.000000
vn 0.000000 1.000000 0.000000
vn 0.171741 -0.362635 0.915970
vn 0.171741 -0.362635 0.915970
vn 0.171741 -0.362635 0.915970
vn 0.171741 -0.362634 0.915970
vn 0.171741 -0.362635 0.915970
vn 0.171741 -0.362635 0.915970
vn 0.171741 -0.362635 0.915970
vn 0.171740 -0.362635 0.915970
vn 0.171741 -0.362635 0.915970
vn 0.171740 -0.362634 0.915970
vn 0.171740 -0.362635 0.915970
vn 0.171741 -0.362635 0.915970
vn 0.171741 -0.362636 0.915970
vn 0.171741 -0.362636 0.915970
vn 0.171741 -0.362636 0.915970
vn 0.171741 -0.362636 0.915970
vn -0.392051 0.827827 0.401246
vn -0.392051 0.827827 0.401246
vn -0.392051 0.827827 0.401246
vn -0.392051 0.827827 0.401246
vn -0.392051 0.827827 0.401246
vn -0.392051 0.827827 0.401246
vn -0.392051 0.827827 0.401246
vn -0.392051 0.827827 0.401246
vn -0.392051 0.827827 0.401246
vn -0.392051 0.827827 0.401246
vn -0.392051 0.827827 0.401246
vn -0.392051 0.827827 0.401246
vn -0.392051 0.827827 0.401246
vn -0.392051 0.827827 0.401246
vn -0.392052 0.827827 0.401246
vn -0.392052 0.827827 0.401246
vn -0.171740 0.362635 -0.915970
vn -0.171741 0.362635 -0.915970
vn -0.171740 0.362635 -0.915970
vn -0.171740 0.362635 -0.915970
vn -0.171741 0.362635 -0.915970
vn -0.171741 0.362635 -0.915970
vn -0.171741 0.362635 -0.915970
vn -0.171741 0.362634 -0.915970
vn -0.171741 0.362635 -0.915970
vn -0.171741 0.362635 -0.915970
vn -0.171741 0.362635 -0.915970
vn -0.171741 0.362635 -0.915970
vn -0.171741 0.362636 -0.915970
vn -0.171741 0.362636 -0.915970
vn -0.171741 0.362635 -0.915970
vn -0.171741 0.362635 -0.915970
vn 0.392052 -0.827826 -0.401246
vn 0.392051 -0.827827 -0.401246
vn 0.392052 -0.827827 -0.401246
vn 0.392052 -0.827827 -0.401246
vn 0.392051 -0.827827 -0.401246
vn 0.392051 -0.827827 -0.401246
vn 0.392052 -0.827827 -0.401246
vn 0.392051 -0.827827 -0.401246
vn 0.392052 -0.827827 -0.401246
vn 0.392052 -0.827826 -0.401246
vn 0.392051 -0.827827 -0.401246
vn 0.392051 -0.827827 -0.401246
vn 0.392051 -0.827827 -0.401246
vn 0.392052 -0.827826 -0.401247
vn 0.392051 -0.827827 -0.401246
vn 0.392051 -0.827826 -0.401247
vn 0.903771 0.428018 0.000000
vn 0.903770 0.428018 -0.000000
vn 0.903770 0.428018 -0.000000
vn 0.903770 0.428018 -0.000000
vn 0.903771 0.428018 0.000000
vn 0.903770 0.428018 -0.000000
vn 0.903771 0.428017 0.000000
vn 0.903771 0.428018 -0.000000
vn 0.903770 0.428018 -0.000000
vn 0.903770 0.428018 -0.000000
vn 0.903770 0.428018 -0.000000
vn 0.903770 0.428018 -0.000000
vn 0.903770 0.428018 0.000000
vn 0.903770 0.428018 0.000000
vn 0.903770 0.428018 0.000000
vn 0.903770 0.428018 0.000000
vn -0.903770 -0.428018 0.000000
vn -0.903771 -0.428017 0.000000
vn -0.903770 -0.428018 0.000000
vn -0.903770 -0.428018 0.000000
vn -0.903771 -0.428017 0.000000
vn -0.903771 -0.428018 0.000000
vn -0.903771 -0.428017 0.000000
vn -0.903770 -0.428018 0.000000
vn -0.903770 -0.428018 -0.000000
vn -0.903770 -0.428018 0.000000
vn -0.903770 -0.428018 0.000000
vn -0.903770 -0.428018 -0.000000
vn -0.903770 -0.428018 -0.000000
vn -0.903770 -0.428018 -0.000000
vn -0.903770 -0.428018 -0.000000
vn -0.903770 -0.428018 -0.000000
vn 0.511042 0.558656 -0.653254
vn 0.511042 0.558656 -0.653254
vn 0.511042 0.558656 -0.653254
vn 0.511042 0.558656 -0.653254
vn 0.754292 0.039581 0.655345
vn 0.754292 0.039581 0.655345
vn 0.754292 0.039581 0.655345
vn 0.754292 0.039581 0.655345
vn -0.398531 0.841509 -0.364740
vn -0.398531 0.841509 -0.364740
vn -0.398531 0.841509 -0.364740
vn -0.398531 0.841509 -0.364740
vn 0.354685 0.890193 0.285927
vn 0.354685 0.890193 0.285927
vn 0.354685 0.890193 0.285927
vn 0.354685 0.890193 0.285927
vn -0.154149 0.325489 0.932896
vn -0.154149 0.325489 0.932896
vn -0.154149 0.325489 0.932896
vn -0.154149 0.325489 0.932896
vn 0.188912 0.935231 -0.299426
vn 0.188912 0.935231 -0.299426
vn 0.188912 0.935231 -0.299426
vn 0.388257 0.511359 0.766660
vn 0.388257 0.511359 0.766660
vn 0.388257 0.511359 0.766660
vn 0.922872 -0.266100 -0.278384
vn 0.922872 -0.266100 -0.278384
vn 0.922872 -0.266100 -0.278384
vn 0.922872 -0.266100 -0.278384
vn 0.393721 -0.831351 0.392224
vn 0.393721 -0.831351 0.392224
vn 0.393721 -0.831351 0.392224
vn 0.393721 -0.831351 0.392224
vn 0.144856 -0.305867 -0.940990
vn 0.144856 -0.305867 -0.940990
vn 0.144856 -0.305867 -0.940990
vn 0.144856 -0.305867 -0.940990
vn -0.322075 -0.899359 -0.295670
vn -0.322075 -0.899359 -0.295670
vn -0.322075 -0.899359 -0.295670
vn -0.322075 -0.899359 -0.295670
vn -0.889019 0.343541 0.302696
vn -0.889019 0.343541 0.302696
vn -0.889019 0.343541 0.302696
vn -0.889019 0.343541 0.302696
vn -0.722350 -0.006933 -0.691493
vn -0.722350 -0.006933 -0.691493
vn -0.722350 -0.006933 -0.691493
vn -0.722350 -0.006933 -0.691493
vn -0.460475 -0.554181 0.693430
vn -0.460475 -0.554181 0.693430
vn -0.460475 -0.554181 0.693430
vn -0.460475 -0.554181 0.693430
vn 0.844664 -0.429398 0.319625
vn 0.844664 -0.429398 0.319625
vn 0.844664 -0.429398 0.319625
vn -0.603632 0.053902 0.795439
vn -0.603632 0.053902 0.795439
vn -0.603632 0.053902 0.795439
vn -0.147647 -0.931629 0.332066
vn -0.147647 -0.931629 0.332066
vn -0.147647 -0.931629 0.332066
vn -0.812827 0.492713 -0.310719
vn -0.812827 0.492713 -0.310719
vn -0.812827 0.492713 -0.310719
vn -0.359652 -0.487052 -0.795884
vn -0.359652 -0.487052 -0.795884
vn -0.359652 -0.487052 -0.795884
vn 0.642926 -0.000319 -0.765928
vn 0.642926 -0.000319 -0.765928
vn 0.642926 -0.000319 -0.765928
f 2/43/1 1/44/2 21/45/3
f 3/47/4 2/43/1 21/45/3
f 4/49/5 3/47/4 21/45/3
f 5/51/6 4/49/5 21/45/3
f 6/53/7 5/51/6 21/45/3
f 7/55/8 6/53/7 21/45/3
f 8/57/9 7/55/8 21/45/3
f 9/59/10 8/57/9 21/45/3
f 10/61/11 9/59/10 21/45/3
f 11/63/12 10/61/11 21/45/3
f 12/62/13 11/63/12 21/45/3
f 13/60/14 12/62/13 21/45/3
f 14/58/15 13/60/14 21/45/3
f 15/56/16 14/58/15 21/45/3
f 16/54/17 15/56/16 21/45/3
f 17/52/18 16/54/17 21/45/3
f 18/50/19 17/52/18 21/45/3
f 19/48/20 18/50/19 21/45/3
f 20/46/21 19/48/20 21/45/3
f 1/44/2 20/46/21 21/45/3
f 23/1/22 24/2/23 62/3/24 61/4/25
f 24/2/23 23/1/22 25/5/26 26/6/27
f 26/6/27 25/5/26 27/12/28 28/13/29
f 28/85/29 27/12/28 29/86/30 30/87/31
f 30/87/31 29/86/30 31/89/32 32/90/33
f 32/90/33 31/89/32 33/92/34 34/93/35
f 34/93/35 33/92/34 35/27/36 36/95/37
f 36/26/37 35/27/36 37/23/38 38/22/39
f 38/22/39 37/23/38 39/24/40 40/25/41
f 40/25/41 39/24/40 41/30/42 42/31/43
f 42/31/43 41/30/42 43/34/44 44/35/45
f 44/35/45 43/34/44 45/37/46 46/38/47
f 46/38/47 45/37/46 47/40/48 48/41/49
f 48/96/49 47/40/48 49/97/50 50/98/51
f 50/98/51 49/97/50 51/100/52 52/101/53
f 52/101/53 51/100/52 53/103/54 54/104/55
f 54/104/55 53/103/54 55/106/56 56/107/57
f 56/18/57 55/19/56 57/15/58 58/14/59
f 58/14/59 57/15/58 59/8/60 60/7/61
f 60/7/61 59/8/60 61/4/25 62/3/24
f 1/10/62 2/11/63 25/5/64 23/1/65
f 2/11/63 3/17/66 27/12/67 25/5/64
f 3/17/66 4/88/68 29/86/69 27/12/67
f 4/88/68 5/91/70 31/89/71 29/86/69
f 5/91/70 6/94/72 33/92/73 31/89/71
f 6/94/72 7/32/74 35/27/75 33/92/73
f 7/32/74 8/28/76 37/23/77 35/27/75
f 8/28/76 9/29/78 39/24/79 37/23/77
f 9/29/78 10/33/80 41/30/81 39/24/79
f 10/33/80 11/36/82 43/34/83 41/30/81
f 11/36/82 12/39/84 45/37/85 43/34/83
f 12/39/84 13/42/86 47/40/87 45/37/85
f 13/42/86 14/99/88 49/97/89 47/40/87
f 14/99/88 15/102/90 51/100/91 49/97/89
f 15/102/90 16/105/92 53/103/93 51/100/91
f 16/105/92 17/108/94 55/106/95 53/103/93
f 17/21/94 18/20/96 57/15/97 55/19/95
f 18/20/96 19/16/98 59/8/99 57/15/97
f 19/16/98 20/9/100 61/4/101 59/8/99
f 20/9/100 1/10/62 23/1/65 61/4/101
f 24/64/102 26/65/103 22/66/104
f 26/65/103 28/67/105 22/66/104
f 28/67/105 30/69/106 22/66/104
f 30/69/106 32/71/107 22/66/104
f 32/71/107 34/73/108 22/66/104
f 34/73/108 36/75/109 22/66/104
f 36/75/109 38/77/110 22/66/104
f 38/77/110 40/79/111 22/66/104
f 40/79/111 42/81/112 22/66/104
f 42/81/112 44/83/113 22/66/104
f 44/83/113 46/84/114 22/66/104
f 46/84/114 48/82/115 22/66/104
f 48/82/115 50/80/116 22/66/104
f 50/80/116 52/78/117 22/66/104
f 52/78/117 54/76/118 22/66/104
f 54/76/118 56/74/119 22/66/104
f 56/74/119 58/72/120 22/66/104
f 58/72/120 60/70/121 22/66/104
f 60/70/121 62/68/122 22/66/104
f 62/68/122 24/64/102 22/66/104
f 63/109/123 64/110/124 68/111/125 67/112/126
f 64/110/124 65/113/127 69/114/128 68/111/125
f 65/113/127 66/115/129 70/116/130 69/114/128
f 67/112/126 68/111/125 72/117/131 71/118/132
f 69/114/128 70/116/130 74/119/133 73/120/134
f 71/118/132 72/117/131 76/121/135 75/122/136
f 72/117/131 73/120/134 77/123/137 76/121/135
f 73/120/134 74/119/133 78/124/138 77/123/137
f 75/125/139 76/126/140 80/127/141 79/128/142
f 76/126/140 77/129/143 81/130/144 80/127/141
f 77/129/143 78/131/145 82/132/146 81/130/144
f 79/128/142 80/127/141 84/133/147 83/134/148
f 81/130/144 82/132/146 86/135/149 85/136/150
f 83/134/148 84/133/147 88/137/151 87/138/152
f 84/133/147 85/136/150 89/139/153 88/137/151
f 85/136/150 86/135/149 90/140/154 89/139/153
f 87/141/155 88/142/156 92/143/157 91/144/158
f 88/142/156 89/145/159 93/146/160 92/143/157
f 89/145/159 90/147/161 94/148/162 93/146/160
f 91/144/158 92/143/157 96/149/163 95/150/164
f 93/146/160 94/148/162 98/151/165 97/152/166
f 95/150/164 96/149/163 100/153/167 99/154/168
f 96/149/163 97/152/166 101/155/169 100/153/167
f 97/152/166 98/151/165 102/156/170 101/155/169
f 99/157/171 100/158/172 104/159/173 103/160/174
f 100/158/172 101/161/175 105/162/176 104/159/173
f 101/161/175 102/163/177 106/164/178 105/162/176
f 103/160/174 104/159/173 108/165/179 107/166/180
f 105/162/176 106/164/178 110/167/181 109/168/182
f 107/166/180 108/165/179 64/169/183 63/170/184
f 108/165/179 109/168/182 65/171/185 64/169/183
f 109/168/182 110/167/181 66/172/186 65/171/185
f 106/173/187 102/174/188 98/175/189 111/176/190
f 110/177/191 106/173/187 111/176/190 112/178/192
f 66/179/193 110/177/191 112/178/192 70/180/194
f 111/176/190 98/175/189 94/181/195 113/182/196
f 70/180/194 112/178/192 114/183/197 74/184/198
f 113/182/196 94/181/195 90/185/199 86/186/200
f 114/183/197 113/182/196 86/186/200 82/187/201
f 74/184/198 114/183/197 82/187/201 78/188/202
f 99/189/203 103/190/204 115/191/205 95/192/206
f 103/190/204 107/193/207 116/194/208 115/191/205
f 107/193/207 63/195/209 67/196/210 116/194/208
f 95/192/206 115/191/205 117/197/211 91/198/212
f 116/194/208 67/196/210 71/199/213 118/200/214
f 91/198/212 117/197/211 83/201/215 87/202/216
f 117/197/211 118/200/214 79/203/217 83/201/215
f 118/200/214 71/199/213 75/204/218 79/203/217
f 72/205/219 68/206/220 116/207/221 118/208/222
f 96/209/223 92/210/224 117/211/225 115/212/226
f 68/206/227 69/213/228 109/214/229 108/215/230
f 108/215/231 104/216/232 115/212/233 116/207/234
f 97/217/235 96/209/236 104/216/237 105/218/238
f 116/207/239 68/206/240 108/215/241
f 115/212/242 104/216/243 96/209/244
f 84/219/245 80/220/246 118/208/247 117/211/248
f 85/221/249 84/222/250 92/223/251 93/224/252
f 73/225/253 72/226/254 80/227/255 81/228/256
f 81/228/257 85/221/258 113/229/259 114/230/260
f 105/218/261 109/214/262 112/231/263 111/232/264
f 69/233/265 73/234/266 114/235/267 112/236/268
f 93/224/269 97/237/270 111/238/271 113/229/272
f 117/211/273 92/210/274 84/219/275
f 105/218/276 111/232/277 97/217/278
f 93/224/279 113/229/280 85/221/281
f 109/214/282 69/213/283 112/231/284
f 81/228/285 114/230/286 73/225/287
f 118/208/288 80/220/289 72/205/290
